<?xml version="1.0" standalone="no"?>
<!DOCTYPE svg PUBLIC "-//W3C//DTD SVG 20010904//EN"
 "http://www.w3.org/TR/2001/REC-SVG-20010904/DTD/svg10.dtd">
<svg version="1.0" xmlns="http://www.w3.org/2000/svg"
 width="6400.000000pt" height="6400.000000pt" viewBox="0 0 6400.000000 6400.000000"
 preserveAspectRatio="xMidYMid meet">

<g transform="translate(0.000000,6400.000000) scale(0.100000,-0.100000)"
fill="#000000" stroke="none">
<path d="M35705 59234 c-690 -6 -1598 -25 -1860 -39 -148 -7 -398 -17 -555
-20 -157 -4 -350 -13 -430 -20 -80 -8 -316 -19 -525 -25 -307 -9 -401 -15
-490 -31 -98 -18 -148 -21 -455 -20 -190 0 -579 -6 -865 -14 -849 -23 -1485
-34 -2290 -40 -418 -3 -809 -10 -870 -15 -60 -5 -306 -14 -545 -20 -239 -5
-455 -13 -480 -16 -101 -15 -185 -123 -195 -253 -3 -31 -10 -117 -16 -191 -6
-74 -14 -151 -19 -170 -5 -19 -14 -102 -20 -185 -6 -82 -17 -184 -25 -225 -16
-86 -23 -158 -30 -318 -3 -61 -12 -131 -21 -153 -8 -23 -19 -83 -24 -133 -6
-50 -20 -121 -30 -157 -11 -36 -20 -86 -20 -111 0 -25 -5 -70 -10 -99 -18 -92
-30 -188 -46 -349 -8 -85 -19 -173 -25 -195 -6 -22 -17 -77 -24 -123 -8 -46
-23 -106 -33 -135 -11 -29 -22 -74 -26 -102 -3 -27 -15 -90 -26 -140 -11 -49
-26 -126 -34 -170 -37 -199 -122 -550 -162 -665 -26 -76 -64 -212 -79 -285 -8
-38 -23 -99 -34 -134 -12 -35 -21 -71 -21 -81 0 -9 -9 -52 -21 -96 -12 -43
-25 -99 -30 -124 -5 -24 -18 -61 -28 -81 -11 -20 -23 -58 -26 -85 -4 -27 -18
-82 -31 -123 -13 -40 -24 -81 -24 -90 0 -9 -8 -32 -19 -51 -20 -38 -64 -183
-82 -270 -6 -30 -17 -64 -23 -75 -13 -21 -82 -235 -162 -500 -15 -49 -35 -106
-44 -125 -10 -19 -35 -87 -55 -150 -21 -63 -45 -131 -55 -150 -9 -19 -20 -52
-24 -73 -7 -39 -57 -176 -78 -212 -6 -11 -19 -45 -29 -75 -9 -30 -32 -91 -49
-135 -18 -44 -49 -125 -70 -180 -38 -100 -56 -140 -136 -314 -24 -51 -44 -97
-44 -102 0 -22 -74 -196 -115 -270 -25 -45 -45 -86 -45 -92 0 -16 -120 -274
-157 -337 -37 -64 -87 -163 -102 -202 -6 -15 -38 -76 -72 -135 -34 -60 -95
-173 -136 -253 -75 -147 -112 -215 -147 -266 -47 -71 -67 -104 -103 -174 -22
-41 -66 -120 -100 -175 -33 -55 -77 -129 -97 -165 -20 -36 -66 -105 -101 -155
-35 -49 -89 -133 -120 -185 -32 -52 -66 -106 -76 -120 -10 -14 -27 -41 -38
-60 -10 -19 -37 -55 -58 -80 -22 -25 -56 -74 -76 -110 -20 -36 -57 -92 -82
-124 -25 -32 -45 -62 -45 -67 0 -5 -8 -17 -17 -27 -10 -10 -34 -43 -55 -73
-20 -31 -57 -81 -81 -111 -25 -31 -52 -68 -60 -84 -9 -16 -36 -54 -62 -84 -25
-30 -54 -64 -62 -75 -33 -42 -77 -92 -129 -150 -30 -33 -127 -148 -216 -255
-88 -107 -169 -204 -180 -215 -10 -11 -42 -47 -71 -80 -28 -33 -75 -83 -103
-111 -28 -28 -61 -66 -74 -85 -40 -57 -212 -239 -270 -286 -30 -25 -122 -111
-205 -191 -82 -81 -165 -160 -185 -175 -19 -16 -71 -61 -115 -102 -44 -40
-136 -124 -205 -186 -69 -63 -127 -116 -130 -119 -3 -3 -36 -29 -75 -58 -81
-60 -106 -86 -158 -163 -37 -55 -37 -57 -37 -155 0 -61 6 -121 16 -154 8 -30
20 -77 26 -105 6 -27 19 -81 30 -118 10 -38 26 -121 33 -185 15 -119 55 -289
95 -397 12 -33 33 -114 47 -180 13 -65 30 -133 37 -150 7 -16 19 -55 26 -85
34 -145 87 -227 218 -339 48 -40 89 -77 92 -81 3 -4 16 -13 29 -20 14 -7 30
-17 35 -22 6 -5 54 -37 106 -72 52 -34 129 -85 170 -113 41 -28 89 -58 105
-67 17 -9 48 -28 70 -41 22 -14 58 -35 79 -46 21 -11 44 -25 50 -31 16 -14 86
-55 125 -74 19 -8 57 -32 85 -53 28 -21 66 -46 85 -56 19 -9 39 -21 45 -26 16
-14 124 -77 178 -105 26 -13 81 -45 122 -72 41 -26 97 -60 123 -76 54 -32 80
-49 203 -127 47 -30 94 -60 105 -66 11 -7 61 -37 110 -68 50 -31 99 -62 110
-68 11 -7 76 -49 145 -93 131 -86 359 -224 368 -224 6 0 42 -23 127 -80 22
-15 45 -29 50 -31 17 -7 116 -67 210 -128 50 -33 137 -87 195 -122 58 -34 141
-86 185 -114 44 -28 98 -62 120 -75 22 -12 76 -46 120 -75 213 -139 325 -211
375 -245 30 -20 92 -58 137 -85 46 -26 88 -54 94 -61 6 -8 16 -14 21 -14 5 0
43 -24 84 -52 41 -29 95 -66 122 -82 26 -16 91 -59 145 -95 127 -85 116 -77
302 -199 88 -58 172 -113 187 -123 15 -11 30 -19 33 -19 7 0 105 -65 127 -84
9 -8 27 -20 40 -27 13 -6 97 -61 188 -122 91 -60 217 -139 280 -174 63 -36
151 -89 195 -118 141 -92 229 -149 255 -163 14 -7 46 -31 72 -53 27 -22 58
-46 71 -52 12 -7 33 -20 47 -30 14 -10 52 -36 85 -58 144 -97 282 -190 300
-203 11 -7 54 -35 95 -61 41 -27 115 -74 164 -106 93 -62 123 -68 155 -30 19
23 8 1014 -13 1181 -8 63 -15 153 -16 199 0 111 -17 298 -35 386 -7 39 -21
147 -30 240 -9 94 -23 208 -31 254 -18 109 -18 179 2 238 23 68 54 105 131
156 62 40 293 166 401 218 23 11 71 42 105 68 35 26 88 62 118 80 126 74 430
285 549 381 93 76 174 138 240 185 102 73 304 244 345 291 22 26 69 71 105
100 84 68 626 613 752 755 13 14 46 53 75 85 29 32 84 96 124 142 39 45 76 85
83 90 7 4 28 27 47 52 18 25 67 81 108 125 41 44 90 102 111 130 20 27 64 80
96 116 101 113 171 197 272 326 53 69 132 169 175 222 43 53 90 111 105 130
15 19 33 40 40 47 15 16 113 147 217 289 39 53 88 120 111 148 22 29 51 67 64
86 13 18 40 52 61 75 22 22 39 45 39 49 0 4 22 36 48 70 27 34 55 73 62 87 7
14 32 50 55 80 23 30 50 71 60 90 10 19 43 69 74 110 31 41 69 95 86 119 55
82 120 178 180 271 33 51 70 105 83 120 12 16 28 39 35 52 7 12 48 76 92 141
44 65 99 146 122 180 22 34 50 74 62 88 11 15 36 56 56 93 19 36 55 95 80 130
25 36 45 68 45 73 1 4 21 40 46 78 24 39 54 88 65 110 11 22 34 58 50 80 16
22 46 65 66 95 20 30 56 87 82 125 51 79 113 182 195 330 31 55 78 136 106
180 27 44 60 100 73 125 13 25 51 93 85 152 34 58 91 164 128 234 37 70 78
143 91 162 12 19 23 38 23 43 0 4 13 28 30 52 16 24 63 109 104 188 40 79 90
169 110 199 20 30 44 74 53 98 9 24 48 103 86 175 66 126 154 307 192 392 9
22 44 99 77 170 96 208 108 235 108 247 0 6 22 57 49 112 60 125 151 335 151
349 0 6 13 38 29 71 64 133 156 349 176 413 8 23 36 88 62 145 106 222 121
258 153 363 10 33 32 94 50 135 53 125 72 172 97 245 14 39 40 111 60 160 19
50 42 111 49 137 8 25 21 59 29 75 8 15 15 37 15 48 0 11 12 45 26 75 45 96
75 182 94 275 26 119 47 203 75 300 13 44 26 100 29 125 3 25 15 79 25 120 11
41 26 116 35 165 16 96 49 240 91 395 14 52 34 131 44 175 11 44 26 96 34 115
34 78 66 200 76 285 6 50 18 117 27 150 8 33 24 152 35 265 21 228 39 345 69
464 27 103 37 220 50 617 10 282 10 343 -4 450 -8 68 -18 165 -22 214 -4 60
-14 108 -30 145 -32 76 -51 157 -64 275 -18 170 -27 226 -54 333 -33 128 -52
177 -87 222 -27 35 -64 115 -113 247 -27 71 -63 118 -101 133 -32 12 -222 17
-590 14z m-5865 -2307 c32 -16 79 -126 80 -187 0 -50 -21 -150 -32 -150 -4 0
-10 5 -13 10 -3 6 -31 10 -62 10 -63 0 -137 29 -154 61 -10 20 3 121 19 143 5
6 16 32 26 58 10 27 25 52 34 58 24 13 72 12 102 -3z m-580 -253 c24 -10 47
-28 55 -44 15 -30 45 -198 45 -257 l0 -38 25 27 c13 14 39 29 57 33 18 4 44
15 58 25 45 32 105 42 180 31 143 -23 193 -8 183 52 -7 46 24 85 55 68 20 -10
29 -29 36 -72 3 -19 61 -76 86 -84 11 -4 20 -10 20 -14 0 -13 110 -173 145
-213 19 -21 35 -44 35 -51 0 -6 8 -25 17 -42 15 -26 17 -54 14 -203 -2 -159
-4 -177 -27 -226 -14 -30 -31 -57 -39 -60 -8 -3 -15 -12 -15 -21 0 -13 7 -15
34 -10 27 6 36 3 44 -12 12 -22 -10 -83 -30 -83 -8 0 -30 -14 -50 -30 -32 -26
-41 -29 -58 -20 -17 9 -19 14 -9 26 6 8 17 14 25 14 7 0 15 9 18 20 3 11 9 29
12 40 4 15 1 20 -14 20 -13 0 -22 -9 -26 -25 -4 -14 -12 -25 -18 -25 -6 0 -21
-8 -32 -18 -12 -10 -37 -25 -56 -32 -19 -8 -41 -22 -48 -32 -11 -15 -27 -18
-88 -18 -74 0 -75 1 -114 39 -22 22 -40 42 -40 46 0 15 30 75 38 75 5 0 14 18
21 40 6 22 41 74 77 117 35 43 67 88 70 101 11 41 -5 89 -39 115 -21 16 -38
42 -51 79 -15 45 -26 60 -56 77 -21 11 -43 21 -50 21 -7 0 -39 -28 -71 -62
-47 -51 -60 -73 -69 -115 -16 -74 0 -145 60 -268 44 -88 51 -112 52 -164 1
-83 -18 -111 -75 -111 -23 0 -54 8 -68 18 -72 47 -88 60 -137 109 -38 38 -69
85 -110 165 l-56 112 -4 150 c-3 89 -9 157 -15 165 -7 7 -11 44 -9 83 2 107
-34 175 -105 199 -45 15 -93 87 -93 141 0 50 36 125 69 143 35 19 92 19 141
-1z m1226 -13 c32 -20 54 -73 54 -132 0 -44 -37 -108 -77 -135 -87 -58 -96
-71 -98 -137 -2 -34 -3 -73 -4 -87 -1 -20 -8 -13 -36 38 -19 34 -35 72 -35 83
0 12 -20 44 -45 71 -60 67 -61 99 -4 153 22 22 56 66 75 97 19 31 42 59 52 61
40 11 89 6 118 -12z m-1806 -943 c0 -42 -20 -77 -59 -100 -66 -40 -156 -120
-178 -160 -12 -21 -25 -55 -29 -74 -7 -39 -111 -169 -144 -179 -10 -3 -60 -65
-110 -138 -51 -73 -113 -154 -139 -180 -107 -111 -138 -138 -174 -149 -55 -17
-167 -154 -224 -275 -25 -52 -51 -97 -59 -100 -8 -3 -14 -11 -14 -19 0 -32
-62 -190 -80 -206 -11 -9 -26 -34 -34 -55 -18 -52 -50 -102 -116 -181 -97
-117 -94 -109 -97 -272 -1 -91 -7 -158 -15 -180 -8 -19 -48 -104 -91 -188 -42
-84 -77 -160 -77 -169 0 -8 -11 -41 -25 -72 -19 -42 -34 -60 -55 -68 -27 -10
-29 -9 -36 21 -12 52 -6 174 10 209 14 30 45 153 60 238 4 20 20 57 37 83 23
33 41 86 66 186 35 143 124 355 179 428 14 17 33 56 43 86 18 54 36 82 102
159 34 40 103 171 119 227 8 26 137 229 196 306 52 70 67 81 126 98 50 14 63
23 96 69 21 28 44 67 51 85 9 21 30 42 57 58 24 14 44 30 44 35 0 5 26 39 58
76 51 59 67 71 124 91 49 18 75 34 102 65 20 23 36 46 36 52 0 6 9 18 20 28
11 9 20 23 20 31 0 8 7 16 14 19 8 3 22 21 32 39 33 66 80 127 102 133 12 3
22 11 22 18 0 6 9 -1 20 -18 11 -16 20 -42 20 -57z m2204 50 c5 -23 88 -141
121 -174 10 -10 27 -39 38 -64 36 -82 70 -115 132 -129 30 -7 68 -24 84 -37
28 -23 111 -136 111 -151 0 -26 41 -85 70 -102 19 -11 46 -34 60 -52 42 -55
74 -82 153 -132 80 -51 115 -86 157 -157 14 -23 42 -53 62 -66 48 -30 68 -70
68 -132 0 -56 -19 -83 -40 -57 -7 8 -21 15 -32 15 -10 0 -46 27 -79 60 -33 33
-77 71 -98 84 -21 14 -74 63 -117 110 -58 64 -85 86 -103 86 -16 0 -40 16 -72
49 -53 56 -69 109 -50 175 9 35 8 40 -17 62 -15 13 -47 31 -72 41 -66 25 -118
59 -182 121 -45 43 -63 69 -84 126 -20 52 -42 86 -82 128 -46 49 -55 65 -67
120 -11 55 -11 65 3 81 20 23 29 22 36 -5z m-1033 -524 c212 -8 398 -48 477
-102 15 -10 52 -24 82 -31 62 -15 244 -107 347 -175 153 -102 210 -152 408
-354 50 -51 116 -118 148 -149 31 -31 57 -60 57 -65 0 -4 37 -57 83 -118 168
-224 319 -496 387 -700 11 -30 33 -93 50 -140 18 -47 36 -107 42 -135 5 -27
22 -90 37 -140 31 -100 51 -187 81 -349 11 -59 22 -111 24 -115 2 -3 9 -69 16
-146 6 -77 16 -156 20 -175 5 -20 5 -174 0 -355 -7 -254 -13 -340 -28 -415
-11 -52 -23 -126 -26 -163 -4 -38 -22 -128 -40 -200 -51 -205 -84 -348 -91
-397 -11 -71 -52 -150 -114 -213 -63 -66 -85 -80 -156 -96 -57 -13 -200 5
-251 32 -54 28 -86 72 -91 124 -7 63 14 84 85 85 65 0 90 23 36 31 -28 5 -48
19 -87 62 -47 53 -52 56 -91 53 -35 -3 -43 -8 -56 -35 -8 -18 -20 -33 -25 -33
-6 0 -16 -9 -23 -21 -11 -17 -11 -27 -2 -50 7 -16 10 -53 8 -84 -5 -64 -31
-98 -86 -116 -44 -14 -189 -7 -223 12 -34 19 -166 17 -204 -3 -24 -13 -77 -17
-280 -21 -266 -5 -297 -9 -373 -57 -44 -27 -45 -29 -22 -34 14 -2 61 -7 105
-10 90 -6 325 -55 400 -84 28 -11 75 -23 105 -27 30 -4 87 -13 125 -21 39 -8
80 -17 92 -19 35 -8 53 -33 53 -76 0 -49 -17 -83 -64 -128 -37 -36 -44 -59
-24 -79 23 -23 -7 -59 -77 -92 -37 -18 -113 -67 -169 -109 -55 -42 -126 -89
-157 -104 -30 -15 -76 -43 -101 -62 -69 -54 -255 -114 -383 -124 -121 -10
-355 -4 -410 10 -22 6 -107 39 -190 74 -82 34 -161 66 -175 70 -48 14 -136 69
-190 119 -49 46 -109 89 -192 140 -22 13 -28 24 -28 51 0 33 -27 75 -48 75
-15 0 -69 93 -87 147 -20 60 -16 81 17 87 13 2 57 11 98 20 41 9 107 20 145
26 39 6 97 21 130 34 62 24 154 46 285 65 123 19 120 18 120 50 0 25 -8 34
-57 61 -53 30 -70 33 -201 44 -79 6 -151 8 -160 5 -9 -3 -34 -9 -55 -12 -38
-6 -43 -3 -71 37 -8 12 -19 17 -30 13 -16 -6 -16 -9 4 -34 20 -26 20 -28 4
-40 -55 -40 -485 17 -540 72 -18 18 -22 33 -21 81 0 77 -21 119 -64 128 -40 8
-50 -1 -54 -47 -2 -19 -8 -43 -13 -54 -6 -10 -13 -44 -17 -75 -9 -69 -59 -141
-108 -157 -72 -23 -111 -24 -134 -1 -13 11 -23 29 -23 40 0 19 32 81 57 111
11 14 10 17 -12 27 -37 17 -46 15 -85 -18 -19 -17 -38 -30 -43 -30 -5 0 -23
-10 -39 -22 l-31 -22 -23 30 c-28 35 -26 29 -107 284 -74 231 -80 255 -102
432 -9 70 -24 151 -32 180 -14 45 -17 127 -19 542 -2 268 1 507 5 530 5 22 25
104 46 181 20 77 43 184 51 239 16 116 28 157 54 181 20 18 25 42 39 167 7 66
15 87 54 150 25 40 60 105 77 143 68 152 104 222 135 265 18 25 42 61 53 80
155 274 300 455 521 650 41 36 106 96 145 133 138 133 371 273 581 352 55 20
113 44 129 52 68 35 297 75 382 68 23 -3 115 -7 205 -11z m2164 -872 c-13 -21
-16 -39 -11 -66 7 -36 7 -36 31 -20 24 15 27 15 58 -9 18 -14 49 -59 72 -103
22 -43 50 -93 62 -112 12 -18 25 -54 29 -79 4 -28 19 -61 41 -90 42 -55 49
-72 58 -151 9 -82 45 -170 101 -248 41 -57 44 -66 44 -123 0 -46 6 -74 25
-111 16 -32 27 -73 31 -122 3 -40 14 -94 25 -120 33 -81 22 -136 -25 -124 -18
4 -33 21 -49 54 -13 26 -41 74 -61 106 -32 49 -40 72 -47 134 -5 41 -17 91
-27 111 -10 20 -22 54 -26 76 -4 22 -18 65 -31 95 -25 60 -72 225 -87 305 -12
70 -26 102 -52 118 -12 8 -51 52 -86 98 -63 82 -65 86 -70 154 l-5 70 -15 -30
c-9 -18 -25 -31 -38 -33 -29 -4 -72 23 -72 46 0 9 -10 37 -23 61 -31 58 -25
96 17 111 56 21 61 26 64 69 l3 43 41 -40 40 -40 -17 -30z m475 -1582 c63 -32
75 -58 63 -138 l-10 -67 33 -38 c29 -31 34 -45 34 -86 0 -27 -5 -72 -12 -100
-13 -60 -1 -165 33 -271 20 -64 29 -166 15 -188 -14 -23 -56 9 -66 50 -6 21
-15 56 -20 78 -6 22 -32 66 -57 98 -25 31 -50 62 -55 69 -5 6 -13 40 -18 75
-9 59 -7 67 19 118 21 40 26 61 20 77 -9 26 -38 43 -72 43 -14 0 -30 7 -37 15
-15 18 -9 91 13 155 8 25 20 64 26 88 14 49 30 53 91 22z m-5359 -30 c16 -9
19 -22 19 -71 0 -36 -7 -75 -16 -96 -15 -30 -15 -43 -4 -102 11 -59 10 -71 -4
-98 -23 -45 -34 -49 -66 -18 l-28 26 -12 -33 c-6 -18 -13 -67 -14 -108 -2 -80
-23 -134 -75 -196 -14 -17 -31 -39 -38 -50 -10 -16 -14 -17 -22 -5 -16 25 -22
114 -11 191 6 41 15 118 19 170 4 52 15 113 24 135 8 22 18 52 21 68 6 23 11
27 41 27 42 0 55 24 55 101 0 42 3 51 23 59 30 12 65 12 88 0z m-1 -935 c37
-88 35 -271 -4 -310 -22 -22 -22 -29 -11 -106 7 -44 6 -47 -41 -99 -101 -110
-122 -130 -133 -130 -20 0 -33 53 -27 110 3 32 0 80 -8 115 -39 168 -46 274
-20 299 8 9 30 16 47 16 42 0 51 7 78 60 13 25 34 59 48 77 30 38 44 31 71
-32z m5363 -3 c18 -18 20 -32 19 -101 -3 -88 8 -106 40 -71 15 16 27 20 47 15
14 -4 27 -7 28 -8 1 -1 -3 -25 -8 -52 -5 -28 -13 -98 -18 -156 -6 -76 -15
-117 -31 -148 -12 -24 -28 -62 -35 -85 -15 -47 -43 -124 -52 -146 -3 -8 -12
33 -18 93 -11 98 -15 111 -45 149 -32 39 -34 47 -35 122 -1 45 -6 99 -12 121
-17 64 -26 252 -12 276 9 19 18 21 61 17 32 -4 57 -13 71 -26z m-5243 -853 c0
-9 13 -36 30 -60 16 -24 32 -64 35 -89 4 -25 13 -62 21 -83 8 -20 14 -61 14
-91 0 -44 -5 -60 -32 -95 -18 -24 -43 -56 -54 -72 l-22 -28 -21 51 c-11 28
-21 58 -21 67 -1 36 -29 92 -59 116 -23 20 -31 35 -31 60 0 18 -12 66 -26 107
-51 146 -49 137 -28 153 21 16 52 19 72 6 9 -5 22 0 39 17 l26 26 28 -35 c16
-19 29 -41 29 -50z m5030 -8 c0 -17 -4 -33 -10 -36 -6 -4 -10 8 -10 29 0 20 5
36 10 36 6 0 10 -13 10 -29z m164 -84 c0 -40 -6 -74 -16 -89 -8 -12 -18 -34
-21 -48 -3 -14 -20 -40 -37 -58 -18 -20 -32 -49 -36 -72 -8 -49 -45 -78 -79
-62 -27 12 -37 64 -26 137 6 44 15 58 70 115 35 35 77 84 93 108 40 58 53 50
52 -31z m-4616 -977 c26 -11 66 -24 90 -29 68 -15 155 -84 199 -157 10 -18 33
-53 51 -79 26 -37 32 -54 27 -76 -5 -23 -13 -29 -33 -31 -52 -3 -77 4 -152 38
-125 59 -313 79 -384 42 -16 -9 -23 -6 -38 12 -14 17 -18 39 -18 99 1 42 6 86
13 97 17 31 72 90 88 97 32 12 113 6 157 -13z m3955 -63 c18 -8 39 -22 46 -31
18 -22 20 -106 3 -164 -17 -57 -43 -67 -133 -51 l-68 12 -88 -41 c-87 -41
-220 -82 -267 -82 -13 0 -29 7 -36 15 -20 24 11 135 52 186 44 54 184 147 239
158 71 14 216 13 252 -2z m-3107 -44 c14 -16 37 -51 50 -80 14 -28 31 -57 39
-63 22 -18 18 -58 -8 -90 -13 -15 -42 -63 -65 -108 -33 -63 -48 -82 -72 -91
-26 -9 -34 -7 -50 9 -24 24 -25 57 -3 170 15 80 15 92 1 142 -13 47 -14 59 -2
87 12 29 40 49 71 50 7 1 24 -11 39 -26z m2142 -67 c23 -27 32 -48 37 -93 10
-87 12 -91 66 -118 43 -23 49 -29 49 -58 0 -22 -7 -37 -22 -47 -85 -55 -203
-85 -226 -58 -6 8 -18 42 -27 75 -15 57 -14 62 6 107 11 26 19 49 17 50 -1 1
-15 7 -30 13 l-27 12 -6 -53 c-5 -38 -15 -63 -36 -87 -16 -19 -29 -42 -29 -51
0 -27 34 -56 79 -68 47 -12 50 -25 26 -106 -15 -51 -58 -95 -100 -102 -32 -5
-70 17 -88 51 -15 27 -16 41 -7 85 11 57 3 85 -26 96 -28 11 -51 -21 -64 -87
-21 -108 -38 -148 -78 -186 -29 -26 -41 -47 -45 -77 -8 -46 -20 -61 -60 -68
-24 -4 -30 0 -44 30 -16 32 -16 41 -2 107 14 66 14 78 -2 137 -9 36 -24 79
-34 96 -22 38 -14 77 20 100 31 20 144 30 172 15 28 -14 37 -2 67 85 l23 69
59 24 c32 13 81 25 108 25 38 1 52 6 60 21 6 11 27 37 47 57 47 49 77 49 117
4z m-1895 -105 c86 -37 113 -137 60 -225 -22 -35 -34 -45 -55 -46 -30 0 -40
16 -26 44 19 35 1 86 -47 137 -48 51 -51 59 -35 90 13 24 46 24 103 0z m-1647
-17 c68 -47 99 -55 200 -53 92 2 96 1 125 -27 50 -48 65 -151 29 -196 -26 -33
-63 -40 -160 -27 -74 9 -272 74 -348 113 -95 50 -119 164 -42 203 14 7 55 13
91 13 55 0 73 -4 105 -26z m5042 -44 c31 -19 32 -22 32 -83 0 -56 -3 -66 -27
-89 -51 -47 -108 -67 -296 -104 -92 -18 -182 -15 -228 6 -33 15 -69 78 -69
120 0 39 15 69 48 96 23 19 36 21 102 17 57 -3 107 3 210 25 166 36 186 37
228 12z m-3055 -64 c15 -4 48 -28 73 -54 25 -26 57 -58 70 -72 20 -21 24 -35
24 -87 0 -86 -32 -181 -78 -231 -49 -55 -83 -62 -117 -27 -26 25 -27 30 -23
117 l3 90 53 47 c38 34 52 53 52 72 0 31 -21 40 -80 32 -55 -8 -74 9 -67 60 5
37 30 68 52 62 5 -2 22 -6 38 -9z m398 -109 c30 -23 38 -54 38 -138 -1 -81 18
-159 38 -159 20 1 31 18 37 55 20 140 86 245 151 243 17 -1 40 2 52 6 31 10
49 -23 59 -109 19 -161 -3 -322 -47 -345 -32 -18 -132 -12 -174 10 -39 20 -67
20 -102 2 -10 -6 -46 -16 -80 -22 -55 -11 -66 -11 -89 5 -29 18 -29 30 -3 164
10 51 10 79 -1 140 -16 96 -14 131 8 147 21 17 92 17 113 1z m-521 -27 c0 -26
-20 -68 -36 -74 -7 -3 -18 2 -25 10 -10 12 -9 22 4 49 19 39 57 49 57 15z"/>
<path d="M29354 56285 c-7 -17 4 -37 17 -30 12 8 12 45 -1 45 -6 0 -13 -7 -16
-15z"/>
<path d="M29311 56174 c0 -11 3 -14 6 -6 3 7 2 16 -1 19 -3 4 -6 -2 -5 -13z"/>
<path d="M29676 55003 c-9 -32 8 -74 35 -91 26 -16 37 -9 44 31 10 51 -9 87
-44 87 -23 0 -30 -5 -35 -27z"/>
<path d="M29975 54990 c-8 -15 -17 -50 -21 -78 -9 -71 11 -102 66 -102 53 0
75 32 66 95 -9 68 -30 102 -66 107 -26 4 -34 0 -45 -22z"/>
<path d="M29375 54995 c-59 -15 -89 -47 -80 -84 14 -57 55 -95 112 -107 26 -5
37 -1 57 19 23 23 26 35 26 90 0 87 -24 105 -115 82z"/>
<path d="M30253 54953 c25 -57 49 -82 83 -89 43 -8 47 -5 34 32 -11 30 -84 84
-113 84 -14 0 -14 -4 -4 -27z"/>
<path d="M29031 54831 c-15 -4 -30 -19 -38 -39 l-13 -32 45 0 c45 0 45 0 45
34 0 40 -6 45 -39 37z"/>
<path d="M30460 54768 c-11 -18 -20 -38 -20 -43 0 -15 59 -65 90 -77 28 -11
230 -1 230 12 0 24 -34 66 -70 86 -40 23 -150 54 -191 54 -11 0 -28 -14 -39
-32z"/>
<path d="M30817 54623 c-4 -3 -7 -21 -7 -39 0 -27 6 -37 29 -48 32 -17 41 -13
41 18 -1 23 -53 80 -63 69z"/>
<path d="M28606 54547 c-14 -19 -26 -37 -26 -40 0 -14 36 -6 80 16 56 28 59
51 8 55 -31 3 -40 -2 -62 -31z"/>
<path d="M28446 54410 c-27 -28 -53 -50 -58 -50 -4 0 -8 -13 -8 -28 0 -26 3
-28 30 -24 41 6 112 86 108 121 -5 38 -19 35 -72 -19z"/>
<path d="M31059 54288 c-52 -47 -72 -90 -57 -123 17 -38 45 -31 100 24 44 44
49 53 46 88 -3 32 -7 38 -28 41 -17 2 -37 -8 -61 -30z"/>
<path d="M28173 54128 c-29 -18 -53 -38 -53 -44 0 -6 -9 -19 -21 -30 -12 -10
-28 -32 -37 -49 -8 -16 -32 -50 -53 -75 -48 -57 -59 -87 -59 -159 0 -53 -3
-61 -40 -102 -58 -63 -72 -93 -70 -152 3 -83 1 -97 -12 -97 -7 0 -46 -32 -87
-70 -41 -38 -82 -72 -92 -75 -16 -6 -35 -52 -25 -62 3 -3 26 -9 51 -14 95 -18
153 29 175 139 13 66 36 130 54 152 11 13 22 32 67 122 5 10 9 26 9 37 0 11
10 32 23 48 43 53 85 128 97 173 12 46 36 86 76 130 13 14 36 52 53 84 43 86
30 97 -56 44z"/>
<path d="M31324 53956 c-9 -35 4 -65 47 -115 22 -24 40 -53 40 -65 1 -12 2
-48 3 -81 1 -33 5 -66 10 -73 13 -22 78 -4 110 30 26 29 28 35 23 90 -4 47
-14 73 -52 133 -43 69 -50 76 -97 90 -69 20 -77 19 -84 -9z"/>
<path d="M31626 53379 c-40 -32 -59 -75 -51 -118 9 -47 21 -61 56 -61 39 0 69
48 69 110 0 47 -4 57 -31 78 -13 10 -21 8 -43 -9z"/>
<path d="M31720 53032 c-19 -16 -23 -27 -21 -76 1 -46 6 -64 28 -93 l27 -35
29 33 c25 30 28 40 24 87 -2 37 -10 59 -27 77 -28 30 -31 30 -60 7z"/>
<path d="M27627 52932 c-23 -23 -29 -40 -29 -74 -1 -55 6 -68 38 -68 52 0 92
35 108 95 7 27 -25 64 -61 71 -22 4 -34 -1 -56 -24z"/>
<path d="M31633 52753 c-14 -5 -17 -41 -5 -60 5 -7 32 -20 60 -28 l52 -16 0
-87 c0 -81 2 -90 28 -119 35 -40 83 -50 108 -21 16 16 19 34 17 96 -3 93 -24
160 -62 196 -25 24 -32 26 -50 16 -18 -9 -28 -7 -55 9 -32 20 -67 25 -93 14z"/>
<path d="M27563 52634 c-23 -23 -25 -31 -21 -90 3 -43 9 -69 19 -75 48 -31 99
15 99 91 0 33 -6 55 -21 74 -26 33 -43 33 -76 0z"/>
<path d="M27544 52295 c-4 -15 -2 -40 3 -58 l9 -31 22 38 c24 40 22 50 -8 66
-17 9 -21 6 -26 -15z"/>
<path d="M28631 52271 c-24 -10 -49 -24 -55 -32 -6 -8 -28 -25 -49 -39 -21
-14 -47 -41 -57 -61 -10 -19 -57 -76 -103 -126 -86 -91 -95 -109 -118 -217
-12 -57 -12 -59 10 -77 13 -11 34 -19 47 -19 37 0 57 -38 45 -89 -9 -41 -25
-62 -146 -191 -37 -40 -45 -58 -64 -137 -11 -50 -21 -118 -21 -152 0 -54 3
-62 26 -77 50 -33 111 17 135 110 36 141 38 145 102 204 34 31 101 97 149 145
l88 88 0 82 c0 45 -7 127 -16 183 -17 97 -17 102 2 140 17 34 27 42 84 61 36
12 86 22 111 23 49 0 77 19 63 42 -16 27 -93 125 -106 135 -24 21 -82 22 -127
4z"/>
<path d="M31812 52249 c-58 -11 -62 -15 -49 -48 12 -32 80 -78 123 -83 24 -2
29 2 37 27 20 68 -33 118 -111 104z"/>
<path d="M29150 52226 c0 -8 5 -18 10 -21 6 -3 10 1 10 9 0 8 -4 18 -10 21 -5
3 -10 -1 -10 -9z"/>
<path d="M30614 52166 c-83 -94 -106 -139 -98 -196 10 -71 4 -153 -13 -179 -9
-14 -28 -35 -44 -48 -30 -26 -52 -80 -47 -115 2 -14 25 -37 63 -63 95 -64 99
-117 14 -197 -28 -26 -59 -50 -69 -53 -35 -11 -54 -111 -25 -135 8 -7 36 -12
63 -12 41 0 56 6 120 53 92 68 103 97 109 289 3 82 10 147 18 165 13 29 19 51
46 158 8 31 21 54 36 64 18 12 23 22 19 44 -5 31 -4 32 61 29 26 -1 69 10 118
29 59 24 92 31 145 31 38 0 72 -4 75 -10 12 -19 54 -10 71 15 25 38 12 73 -30
81 -19 3 -40 3 -46 -1 -6 -3 -35 -6 -64 -6 -56 0 -63 3 -170 79 -44 32 -48 33
-99 23 -36 -6 -66 -6 -93 1 -98 25 -96 26 -160 -46z"/>
<path d="M31508 52196 c-48 -27 -54 -71 -11 -87 38 -14 56 -8 72 25 14 30 6
77 -14 82 -5 1 -27 -8 -47 -20z"/>
<path d="M27855 52180 c-11 -18 36 -57 86 -71 24 -7 51 -18 60 -26 8 -7 28
-13 43 -13 25 0 26 1 12 16 -9 8 -16 22 -16 30 0 8 -6 14 -13 14 -8 0 -36 11
-62 25 -62 31 -101 40 -110 25z"/>
<path d="M31830 51891 c-32 -64 -68 -114 -105 -146 -46 -39 -53 -92 -15 -112
31 -17 147 -10 167 9 45 46 30 288 -18 288 -5 0 -18 -18 -29 -39z"/>
<path d="M31404 51873 c-19 -4 -20 -8 -13 -46 4 -23 8 -58 9 -78 0 -20 8 -47
18 -60 l19 -22 31 46 c36 51 40 85 15 125 -27 42 -32 44 -79 35z"/>
<path d="M27650 51715 c0 -18 -56 -78 -87 -94 -27 -14 -40 -70 -23 -100 11
-21 12 -21 52 14 23 19 47 35 54 35 16 0 44 61 44 95 0 30 -16 65 -30 65 -6 0
-10 -7 -10 -15z"/>
<path d="M28731 51634 l-44 -27 24 -18 c36 -28 121 -29 151 -2 13 12 14 20 6
44 -9 26 -15 29 -51 29 -27 0 -57 -9 -86 -26z"/>
<path d="M31381 51581 c-9 -17 -10 -26 -2 -34 18 -18 36 8 24 35 l-10 23 -12
-24z"/>
<path d="M31671 51423 c-18 -33 63 -113 115 -113 49 0 74 76 32 98 -22 11
-101 31 -125 32 -7 0 -16 -8 -22 -17z"/>
<path d="M27626 51367 c-34 -25 -32 -94 4 -203 19 -55 44 -123 57 -152 21 -47
26 -52 49 -48 37 7 39 12 26 59 -7 23 -23 101 -36 173 -30 167 -53 205 -100
171z"/>
<path d="M31650 51207 c-44 -15 -51 -52 -19 -103 36 -58 60 -76 94 -70 40 8
55 31 55 82 0 76 -58 116 -130 91z"/>
<path d="M28923 51194 c-16 -7 44 -64 67 -64 10 0 32 -3 49 -6 24 -5 31 -3 31
9 0 30 -111 76 -147 61z"/>
<path d="M28523 51163 c-10 -21 -10 -28 0 -35 22 -14 27 -9 27 27 0 42 -10 45
-27 8z"/>
<path d="M29310 51059 c-30 -11 -79 -22 -108 -26 -51 -6 -55 -8 -95 -65 -53
-75 -85 -86 -208 -69 -103 15 -159 4 -201 -37 -14 -15 -33 -33 -42 -40 -26
-21 -19 -49 15 -61 18 -6 33 -11 34 -11 1 0 12 9 25 20 22 19 43 24 100 21
127 -4 176 6 197 43 4 8 25 26 46 40 75 51 131 73 202 80 135 13 172 24 183
54 8 23 6 30 -12 43 -35 27 -77 29 -136 8z"/>
<path d="M29963 51047 l-22 -12 22 -27 c22 -26 158 -78 205 -78 30 0 210 -59
241 -79 13 -8 30 -30 37 -48 l14 -32 42 15 c33 12 60 14 118 8 41 -4 118 -8
170 -8 94 -1 97 -2 139 -36 l44 -34 26 31 c16 19 43 35 69 42 52 15 54 33 5
65 -37 24 -44 25 -323 32 l-284 7 -52 49 c-64 61 -150 96 -264 108 -113 13
-160 12 -187 -3z"/>
<path d="M31600 50957 c-30 -15 -51 -56 -58 -114 l-5 -43 30 11 c30 10 83 67
96 103 10 26 -1 56 -21 56 -9 0 -28 -6 -42 -13z"/>
<path d="M28382 50850 c-18 -17 -19 -24 -11 -49 23 -64 129 -63 129 1 0 58
-74 89 -118 48z"/>
<path d="M29666 50708 c-9 -17 -16 -34 -16 -38 0 -14 30 -19 55 -10 20 8 25
16 25 45 0 30 -3 35 -24 35 -18 0 -29 -9 -40 -32z"/>
<path d="M29373 50696 c-23 -20 -26 -28 -17 -43 16 -26 47 -27 93 -3 35 17 40
23 31 39 -20 38 -67 41 -107 7z"/>
<path d="M30479 50699 c-26 -26 -12 -39 43 -39 48 0 54 12 18 38 -36 27 -35
27 -61 1z"/>
<path d="M26982 51580 c0 -19 2 -27 5 -17 2 9 2 25 0 35 -3 9 -5 1 -5 -18z"/>
<path d="M42165 46198 c-45 -29 -496 -474 -553 -545 -12 -15 -69 -76 -127
-134 -58 -59 -105 -110 -105 -114 0 -11 -251 -255 -261 -255 -12 0 -151 -128
-164 -150 -25 -44 -139 -159 -234 -236 -57 -46 -140 -117 -185 -158 -93 -85
-259 -225 -341 -288 -31 -24 -83 -63 -115 -88 -32 -25 -85 -65 -117 -90 -32
-24 -81 -64 -109 -87 -28 -24 -56 -43 -61 -43 -5 0 -18 -9 -29 -21 -10 -12
-35 -30 -54 -40 -19 -11 -62 -39 -95 -64 -116 -86 -148 -108 -325 -223 -188
-122 -195 -127 -205 -138 -11 -12 -91 -73 -116 -89 -9 -5 -42 -29 -75 -53
-104 -76 -257 -172 -316 -200 -32 -14 -58 -29 -58 -33 0 -4 -15 -12 -32 -19
-18 -7 -64 -33 -103 -58 -38 -25 -86 -55 -105 -67 -19 -12 -55 -35 -80 -50
-56 -36 -96 -60 -135 -79 -16 -8 -59 -33 -95 -55 -36 -22 -106 -61 -157 -85
-50 -25 -94 -50 -98 -56 -4 -6 -41 -28 -83 -50 -42 -22 -133 -76 -202 -120
-123 -78 -186 -112 -285 -154 -27 -12 -106 -51 -175 -88 -69 -36 -147 -73
-175 -82 -27 -9 -81 -32 -120 -52 -38 -19 -131 -62 -205 -95 -74 -33 -153 -68
-175 -79 -22 -11 -76 -35 -120 -53 -44 -19 -145 -66 -225 -104 -80 -39 -176
-80 -215 -92 -38 -12 -90 -33 -115 -46 -104 -54 -176 -86 -219 -97 -25 -6 -63
-19 -83 -29 -21 -11 -43 -19 -49 -19 -16 0 -150 -60 -169 -76 -23 -19 -232
-102 -323 -129 -42 -13 -83 -27 -90 -33 -6 -5 -32 -15 -57 -22 -25 -6 -69 -28
-98 -47 -59 -39 -86 -50 -212 -87 -47 -13 -131 -38 -186 -55 -56 -17 -111 -31
-122 -31 -11 0 -25 -7 -32 -15 -7 -8 -31 -20 -54 -25 -22 -6 -63 -22 -91 -35
-56 -27 -172 -60 -349 -99 -66 -14 -138 -35 -160 -47 -87 -46 -343 -129 -396
-129 -42 0 -345 -96 -522 -166 -70 -27 -115 -37 -230 -49 -154 -16 -355 -53
-428 -79 -25 -8 -92 -29 -150 -47 -58 -18 -118 -39 -134 -47 -49 -24 -194 -42
-344 -42 -150 0 -151 0 -355 -66 -57 -19 -114 -28 -215 -35 -157 -10 -276 -31
-378 -65 -69 -23 -189 -32 -624 -49 -30 -2 -104 -6 -165 -9 -60 -4 -258 -11
-440 -15 -181 -5 -337 -11 -346 -15 -30 -13 -41 -58 -39 -161 2 -172 15 -283
35 -305 29 -32 166 -68 305 -80 69 -6 190 -22 270 -35 91 -16 223 -29 354 -35
115 -6 212 -13 216 -15 12 -8 783 -29 1050 -30 320 0 952 23 1075 40 55 7 163
18 240 25 77 6 235 19 350 30 379 35 548 49 710 60 88 6 201 18 250 27 50 8
124 19 165 23 117 14 465 70 565 90 50 11 133 28 185 39 52 11 166 25 253 32
88 6 187 17 220 25 34 8 100 21 147 29 47 9 103 22 125 30 22 8 76 21 120 29
44 8 92 19 107 25 39 15 296 58 428 71 63 7 131 18 150 26 19 7 64 20 100 29
36 9 83 22 105 30 139 46 364 105 460 120 22 4 78 18 125 32 262 78 349 103
475 136 69 18 208 59 280 82 528 173 842 275 848 275 4 0 26 9 50 20 23 11
127 49 230 84 103 36 216 79 250 95 64 30 175 73 302 116 92 31 201 77 284
119 66 34 120 58 261 116 80 33 93 39 271 124 63 31 122 56 130 56 8 0 30 8
49 19 19 10 53 24 75 31 22 7 52 21 66 31 14 10 37 21 52 24 15 4 29 11 32 15
5 8 94 52 210 105 145 66 424 205 430 214 3 6 23 15 44 21 33 9 98 41 201 101
14 8 33 21 44 29 10 8 35 24 56 35 125 65 164 87 202 113 24 16 77 48 118 71
41 23 113 66 160 96 87 55 171 106 225 136 17 9 49 27 71 40 23 13 79 46 125
72 46 26 102 61 124 76 22 16 108 72 190 126 83 53 162 106 177 116 15 11 30
19 33 19 3 0 37 25 75 55 38 30 71 55 74 55 3 0 33 21 67 48 33 26 69 52 79
57 25 15 141 101 208 156 32 25 84 63 116 85 33 21 70 48 82 59 40 36 58 50
82 62 21 11 110 86 184 155 16 15 59 48 96 74 37 26 81 59 98 73 17 14 44 35
59 46 16 11 41 31 55 45 212 200 223 214 199 273 -17 41 -81 129 -112 153 -13
11 -77 80 -141 154 -63 74 -148 164 -187 200 -40 36 -84 78 -98 94 -41 46
-202 227 -236 266 -16 18 -50 52 -74 75 -65 58 -126 125 -162 175 -17 25 -100
113 -185 197 -85 83 -154 154 -154 157 0 3 -20 27 -44 53 -208 227 -380 418
-422 469 -110 133 -143 147 -229 92z"/>
<path d="M18920 38920 c-69 -4 -159 -15 -200 -24 -41 -9 -131 -23 -200 -31
-69 -7 -143 -18 -165 -24 -22 -5 -101 -15 -175 -21 -74 -7 -157 -18 -184 -26
-27 -7 -101 -21 -165 -29 -64 -9 -152 -22 -196 -30 -44 -8 -129 -17 -190 -20
-60 -4 -145 -15 -187 -26 -42 -10 -123 -24 -179 -30 -57 -5 -133 -16 -169 -24
-36 -7 -110 -18 -165 -25 -54 -6 -125 -17 -156 -25 -31 -8 -117 -22 -190 -30
-74 -8 -150 -19 -169 -24 -19 -6 -102 -15 -185 -21 -82 -6 -172 -18 -200 -26
-27 -8 -115 -21 -195 -29 -80 -8 -177 -21 -215 -29 -39 -8 -118 -18 -175 -21
-58 -4 -134 -15 -170 -26 -36 -10 -120 -23 -187 -28 -68 -6 -180 -19 -250 -30
-71 -11 -155 -24 -188 -29 -33 -6 -78 -17 -100 -25 -22 -8 -88 -18 -145 -22
-58 -3 -136 -13 -175 -21 -38 -8 -135 -21 -215 -28 -80 -8 -162 -22 -183 -31
-21 -8 -88 -20 -150 -25 -62 -5 -137 -14 -167 -20 -30 -5 -116 -16 -190 -24
-75 -9 -165 -22 -201 -30 -35 -9 -126 -22 -201 -30 -75 -9 -156 -20 -180 -25
-24 -5 -88 -15 -143 -21 -54 -7 -115 -18 -135 -25 -19 -8 -53 -19 -75 -24 -34
-9 -120 -53 -286 -147 -11 -6 -32 -23 -47 -36 -15 -14 -35 -29 -44 -34 -24
-13 -101 -83 -226 -204 -60 -58 -124 -119 -143 -136 -19 -17 -53 -51 -75 -75
-23 -24 -68 -69 -100 -99 -33 -30 -116 -109 -185 -175 -124 -119 -337 -318
-432 -405 -53 -49 -267 -252 -357 -340 -32 -30 -129 -119 -216 -197 -87 -78
-166 -150 -175 -160 -38 -41 -156 -151 -181 -167 -16 -10 -28 -22 -28 -27 0
-10 -66 -79 -75 -79 -3 0 -31 -24 -61 -52 -31 -29 -79 -75 -108 -103 -29 -27
-72 -66 -95 -85 -23 -19 -66 -57 -95 -85 -29 -27 -88 -81 -131 -120 -43 -38
-96 -88 -119 -110 -175 -171 -338 -320 -391 -359 -22 -17 -43 -36 -48 -42 -9
-16 -28 -33 -62 -59 -15 -11 -43 -38 -64 -59 -20 -22 -44 -47 -54 -57 -11 -9
-23 -21 -28 -26 -5 -4 -26 -25 -47 -46 -20 -20 -62 -61 -93 -90 -135 -126
-319 -297 -389 -361 -148 -135 -232 -212 -313 -291 -100 -97 -231 -215 -262
-235 -12 -8 -43 -35 -68 -60 -25 -25 -84 -83 -132 -130 -47 -47 -95 -97 -106
-112 l-20 -27 27 -7 c35 -9 164 2 244 20 36 8 126 20 200 27 74 6 147 17 161
25 14 7 55 18 90 23 35 6 118 20 184 31 66 10 174 24 240 29 66 5 146 17 178
25 33 8 116 20 185 26 69 6 130 14 135 17 4 3 75 15 155 28 81 13 160 28 175
34 16 6 62 11 102 11 73 0 74 0 132 48 32 26 84 63 117 82 32 19 68 44 80 55
12 11 44 37 72 58 27 21 74 60 104 87 30 26 98 82 150 124 52 41 119 95 148
118 29 24 64 49 77 56 14 7 35 22 49 35 13 12 48 40 77 62 29 22 77 59 106 83
29 23 56 42 61 42 4 0 30 20 57 44 62 53 178 141 208 157 28 15 70 48 124 99
23 21 55 46 70 54 15 8 44 29 63 47 41 39 180 151 241 194 23 17 82 63 131
103 50 39 93 72 98 72 7 0 73 48 100 74 42 39 225 186 233 186 5 0 24 12 42
28 36 29 75 58 110 82 12 8 35 24 51 34 16 11 36 27 45 35 8 9 42 34 75 56 32
22 60 43 62 47 3 6 131 107 220 173 15 12 43 36 62 54 19 19 51 44 71 57 21
13 63 44 95 71 33 26 95 70 139 98 44 28 105 68 135 91 30 22 81 53 114 69 32
16 68 40 80 52 50 55 91 78 156 89 88 14 130 3 170 -48 41 -51 46 -121 12
-168 -12 -16 -22 -34 -22 -39 0 -15 -61 -81 -84 -93 -70 -33 -151 -87 -203
-135 -21 -19 -65 -53 -98 -76 -59 -39 -170 -129 -190 -153 -17 -20 -185 -144
-195 -144 -5 0 -15 -8 -22 -18 -12 -16 -123 -101 -166 -127 -9 -6 -46 -30 -81
-55 -35 -25 -71 -49 -80 -55 -9 -5 -23 -16 -31 -23 -8 -7 -42 -31 -75 -53 -73
-50 -110 -77 -209 -154 -43 -33 -94 -71 -115 -85 -53 -35 -109 -74 -156 -109
-22 -17 -65 -48 -95 -68 -30 -21 -81 -58 -112 -83 -31 -25 -73 -56 -93 -70
-20 -14 -54 -38 -75 -55 -21 -16 -60 -46 -86 -65 -26 -19 -58 -44 -69 -55 -12
-11 -33 -28 -46 -38 -13 -9 -37 -28 -54 -41 -16 -13 -43 -31 -60 -40 -16 -9
-46 -29 -66 -44 -20 -15 -61 -46 -92 -69 -31 -24 -61 -43 -67 -43 -6 0 -13 -7
-17 -15 -3 -9 -20 -23 -37 -32 -17 -9 -57 -35 -89 -59 -31 -24 -61 -44 -67
-44 -5 0 -15 -8 -22 -19 -7 -10 -28 -26 -45 -35 -18 -9 -56 -35 -85 -59 -29
-23 -65 -50 -79 -59 -14 -9 -48 -35 -75 -58 -27 -22 -61 -51 -76 -63 -15 -12
-51 -45 -80 -73 -29 -28 -60 -54 -68 -57 -34 -15 255 3 385 23 190 30 250 34
300 20 68 -19 82 -38 228 -320 15 -30 41 -77 57 -105 15 -27 47 -88 70 -135
23 -47 45 -92 50 -100 5 -8 39 -69 75 -135 36 -66 70 -127 75 -135 31 -48 119
-210 160 -290 18 -36 42 -78 54 -95 24 -32 86 -156 86 -170 0 -5 9 -18 19 -29
11 -12 40 -61 66 -111 73 -141 93 -174 130 -219 40 -49 85 -172 85 -234 0 -63
13 -82 58 -81 20 0 127 0 237 0 214 0 353 13 575 55 74 13 186 34 247 45 62
11 177 35 255 55 79 19 195 46 258 59 114 23 168 39 265 75 93 36 209 69 298
85 51 10 123 32 170 54 45 21 107 46 137 56 30 10 72 26 92 36 21 11 46 19 57
19 11 0 55 18 98 40 43 23 134 59 203 82 69 23 145 54 170 68 82 48 303 141
366 155 18 3 40 15 50 26 9 10 21 19 26 19 5 0 26 11 47 25 45 28 157 75 179
75 8 0 29 10 46 23 17 13 51 35 76 49 48 27 269 118 288 118 7 0 32 15 56 33
88 64 131 92 171 110 22 10 51 29 65 42 14 13 55 37 92 54 37 17 70 36 73 41
3 5 43 28 88 51 98 49 98 49 174 119 33 30 96 74 139 97 44 23 90 52 104 65
14 13 54 43 90 68 89 61 220 161 304 233 39 33 123 103 186 155 63 53 138 117
165 143 28 26 86 77 129 115 149 129 246 227 281 283 19 31 50 66 70 79 19 12
35 30 35 40 0 20 -140 294 -190 372 -5 8 -16 31 -25 50 -14 35 -33 69 -113
206 -23 39 -42 75 -42 81 0 5 -9 18 -20 28 -11 10 -20 22 -20 27 0 8 -33 68
-112 206 -16 26 -36 63 -46 82 -10 19 -36 62 -57 95 -22 33 -45 72 -52 87 -6
15 -30 55 -53 89 -22 34 -47 76 -55 93 -8 17 -37 67 -63 111 -184 305 -263
466 -292 591 -18 79 -4 113 82 197 40 40 101 101 135 137 34 36 67 70 75 76 7
7 49 51 93 99 44 48 96 102 115 119 19 17 46 42 60 56 15 14 44 40 66 59 21
19 83 75 138 125 54 50 105 95 115 100 9 5 39 32 68 60 29 28 78 74 110 101
31 28 80 70 107 95 28 25 83 72 121 105 59 50 165 143 200 176 6 5 16 15 23
22 7 6 36 34 65 62 29 27 88 80 132 118 44 38 102 88 128 110 76 65 536 526
548 549 8 16 8 23 -2 29 -16 10 -175 9 -359 -1z"/>
<path d="M23985 15756 c-18 -13 -19 -29 -16 -322 1 -170 5 -312 7 -316 2 -3 3
-379 2 -835 -1 -455 -1 -1269 1 -1807 2 -1097 -5 -1006 75 -1027 54 -15 745
-2 764 14 8 6 23 29 35 51 l22 41 0 1037 c0 1002 1 1037 19 1057 50 56 184
-12 271 -136 9 -13 21 -23 27 -23 6 0 54 -44 107 -98 120 -121 302 -296 356
-341 22 -18 84 -75 137 -126 54 -52 130 -121 170 -156 39 -34 104 -94 143
-133 79 -78 294 -273 341 -309 16 -12 43 -35 59 -52 17 -16 66 -61 110 -100
225 -198 595 -555 595 -575 0 -3 48 -51 108 -104 59 -54 123 -117 142 -141 19
-23 49 -50 66 -58 31 -15 33 -15 55 9 20 22 25 40 30 117 4 51 6 1006 5 2122
l-1 2030 -30 37 c-27 34 -35 37 -95 44 -103 11 -584 -11 -655 -31 -33 -9 -64
-20 -69 -25 -20 -20 -25 -225 -27 -1129 -1 -526 -4 -981 -7 -1011 -8 -91 -68
-132 -138 -95 -16 8 -99 86 -185 172 -85 87 -239 239 -342 338 -103 99 -227
219 -275 267 -102 102 -83 84 -202 195 -52 48 -113 101 -135 118 -22 16 -47
36 -55 45 -8 9 -42 38 -75 65 -78 64 -91 75 -215 192 -154 145 -220 205 -262
236 -38 28 -317 297 -627 605 -178 176 -195 188 -236 158z"/>
<path d="M36344 15721 c-11 -14 -45 -70 -75 -125 -30 -54 -67 -122 -82 -150
-16 -28 -71 -134 -123 -235 -52 -101 -113 -214 -134 -252 -22 -37 -40 -71 -40
-75 0 -4 -44 -86 -97 -181 -54 -95 -107 -190 -117 -211 -11 -20 -24 -46 -29
-57 -6 -11 -17 -33 -25 -50 -8 -16 -21 -37 -28 -45 -6 -8 -31 -52 -54 -97 -23
-45 -48 -87 -56 -94 -8 -6 -14 -16 -14 -21 0 -13 -77 -168 -93 -187 -8 -9 -29
-47 -48 -86 -19 -38 -44 -83 -55 -100 -12 -16 -50 -88 -85 -158 -76 -152 -100
-197 -139 -257 -16 -25 -49 -83 -74 -130 -70 -135 -138 -184 -190 -138 -14 13
-49 70 -79 128 -29 58 -60 116 -68 130 -70 115 -118 198 -123 216 -4 12 -15
29 -26 39 -11 10 -20 24 -20 30 0 7 -21 43 -46 81 -26 38 -51 83 -57 99 -5 17
-18 39 -27 50 -10 11 -27 38 -39 60 -12 22 -55 96 -97 165 -41 69 -83 143 -93
165 -10 22 -26 46 -35 54 -9 7 -16 19 -16 25 0 6 -10 26 -23 45 -41 64 -66
106 -92 156 -44 85 -58 109 -87 149 -15 21 -28 43 -28 48 0 7 -92 160 -149
248 -9 13 -27 46 -41 72 -23 44 -91 164 -150 264 -14 23 -50 86 -80 139 -115
202 -148 251 -178 264 -12 6 -25 11 -27 11 -14 0 -51 -134 -84 -295 -5 -27
-16 -75 -25 -105 -8 -30 -19 -87 -25 -125 -5 -39 -17 -84 -24 -100 -8 -17 -17
-77 -21 -135 -3 -58 -13 -128 -21 -155 -9 -28 -22 -92 -30 -143 -8 -50 -21
-105 -29 -120 -8 -16 -17 -57 -21 -93 -3 -35 -15 -93 -25 -129 -10 -36 -23
-104 -29 -152 -5 -48 -18 -102 -27 -120 -12 -23 -21 -83 -29 -198 -8 -95 -20
-184 -29 -209 -9 -24 -16 -50 -16 -58 0 -8 -13 -45 -29 -81 -28 -65 -47 -159
-70 -358 -6 -50 -20 -112 -31 -136 -11 -25 -26 -99 -35 -169 -8 -68 -19 -137
-24 -154 -5 -16 -12 -54 -16 -84 -3 -30 -17 -78 -31 -106 -13 -29 -24 -61 -24
-71 0 -11 -9 -53 -21 -94 -11 -41 -24 -125 -29 -186 -6 -81 -14 -122 -29 -150
-12 -21 -21 -46 -21 -56 0 -9 -9 -41 -19 -70 -17 -48 -33 -200 -35 -338 -1
-39 2 -46 27 -58 32 -16 157 -19 488 -12 197 5 219 7 238 24 43 39 60 81 71
173 5 50 16 106 24 124 8 19 21 72 30 119 8 47 22 108 30 136 7 27 17 90 20
140 9 123 38 259 80 370 8 22 19 103 25 180 5 76 16 157 24 179 8 22 17 62 22
90 4 27 15 65 25 85 9 19 22 68 28 109 14 93 50 144 104 149 40 3 92 -32 104
-71 18 -60 59 -155 79 -182 12 -16 40 -66 62 -110 22 -44 54 -102 72 -130 17
-27 42 -72 56 -100 14 -27 39 -70 55 -95 16 -25 36 -58 43 -75 8 -16 35 -61
61 -100 25 -38 46 -75 46 -81 0 -6 9 -19 20 -29 10 -9 24 -34 31 -54 6 -20 20
-45 29 -56 10 -11 22 -33 26 -49 4 -16 26 -56 49 -90 22 -34 61 -96 86 -139
24 -43 55 -97 69 -121 14 -24 45 -79 69 -123 24 -43 52 -90 62 -104 10 -14 21
-37 24 -51 4 -15 15 -34 26 -44 10 -9 19 -23 19 -30 0 -6 16 -31 35 -54 19
-23 35 -47 35 -53 0 -6 14 -26 31 -43 64 -66 80 -43 335 461 52 105 111 215
129 245 19 30 55 97 81 148 25 51 50 95 55 98 5 3 30 49 57 102 55 110 134
260 174 330 15 26 32 58 38 72 24 50 42 86 58 115 55 95 77 132 88 145 7 8 33
56 59 105 25 50 58 102 73 118 35 37 79 36 115 -1 25 -26 29 -41 47 -188 24
-205 55 -398 79 -499 45 -187 61 -266 75 -370 8 -60 21 -135 29 -165 9 -30 21
-105 27 -167 6 -61 17 -130 25 -152 7 -22 18 -71 23 -108 12 -85 55 -163 97
-176 44 -14 671 -17 790 -4 55 6 120 10 145 10 25 0 200 -4 388 -7 370 -7 395
-5 480 46 56 34 135 175 241 428 38 91 42 96 93 125 48 27 61 30 148 29 52 0
413 -1 802 -2 705 -3 707 -3 765 -26 64 -24 56 -13 142 -201 28 -61 51 -117
51 -125 0 -30 74 -221 95 -244 40 -43 117 -50 529 -42 433 9 422 6 413 90 -3
28 -17 79 -32 111 -42 91 -116 247 -178 375 -30 63 -60 132 -67 153 -6 20 -17
43 -24 50 -22 23 -56 89 -132 255 -42 92 -94 200 -115 241 -21 41 -39 79 -39
84 0 6 -20 44 -44 86 -24 42 -49 94 -56 116 -7 22 -18 47 -25 55 -7 8 -16 25
-19 37 -4 13 -14 29 -21 37 -8 8 -36 56 -61 108 -26 51 -73 143 -104 203 -98
186 -160 313 -175 355 -8 23 -23 53 -34 68 -20 29 -131 258 -131 271 0 5 -9
19 -19 33 -11 13 -24 42 -30 65 -6 22 -31 77 -56 122 -25 45 -45 85 -45 90 0
5 -15 40 -34 78 -18 37 -46 95 -61 128 -15 33 -41 85 -57 115 -16 30 -46 91
-67 135 -21 44 -50 105 -64 136 -15 31 -27 59 -27 63 0 5 -22 54 -49 109 -27
56 -90 186 -139 289 -74 154 -95 189 -120 202 -30 15 -30 15 -56 -18 -14 -19
-31 -47 -38 -63 -7 -15 -23 -42 -35 -59 -13 -17 -23 -35 -23 -39 0 -9 -55
-130 -71 -155 -5 -8 -31 -60 -59 -115 -27 -55 -67 -132 -88 -171 -22 -40 -42
-80 -46 -90 -4 -11 -33 -68 -65 -129 -33 -60 -76 -144 -96 -185 -21 -41 -76
-153 -123 -248 -47 -95 -89 -175 -93 -178 -4 -2 -11 -19 -15 -36 -7 -34 -116
-252 -139 -278 -7 -8 -16 -26 -20 -40 -11 -40 -156 -342 -206 -430 -17 -30
-40 -79 -51 -109 -17 -46 -121 -255 -336 -676 -23 -44 -68 -137 -102 -206 -33
-70 -67 -132 -75 -139 -8 -7 -15 -18 -15 -24 0 -6 -13 -38 -30 -71 -16 -33
-30 -66 -30 -72 0 -7 -20 -49 -44 -93 -25 -44 -48 -90 -52 -102 -4 -13 -29
-66 -55 -119 -27 -52 -49 -108 -49 -124 0 -42 -60 -153 -101 -186 -32 -25 -39
-27 -66 -17 -41 15 -50 33 -79 151 -13 56 -35 147 -49 202 -14 55 -29 129 -35
165 -6 36 -27 129 -46 208 -19 78 -44 204 -55 280 -11 75 -31 187 -45 247 -13
61 -34 157 -45 215 -33 175 -62 314 -90 430 -6 25 -17 95 -24 156 -7 62 -20
125 -29 142 -15 29 -57 228 -71 337 -4 28 -20 101 -36 164 -16 62 -29 122 -29
134 0 11 -9 48 -20 81 -11 35 -23 114 -29 186 -5 76 -15 137 -25 155 -8 17
-20 64 -27 105 -6 41 -16 86 -21 100 -5 14 -16 84 -23 156 -9 89 -20 142 -33
170 -12 23 -31 106 -47 204 -30 185 -39 211 -75 220 -19 5 -30 1 -46 -19z
m3151 -1696 c18 -19 41 -56 50 -82 20 -58 50 -127 88 -201 15 -29 27 -59 27
-65 0 -7 11 -34 24 -62 39 -84 68 -157 81 -210 7 -27 28 -81 47 -120 20 -38
41 -90 48 -115 7 -25 34 -94 61 -155 51 -118 69 -198 50 -234 -7 -11 -28 -29
-49 -40 -35 -17 -65 -18 -501 -16 l-464 2 -29 31 c-17 20 -28 44 -28 62 0 52
30 174 50 201 10 15 22 43 26 64 3 20 28 81 55 134 27 53 49 102 49 110 0 7 9
30 19 50 34 65 69 145 79 181 6 19 35 90 66 158 31 67 64 151 72 185 20 78 37
110 70 136 39 31 71 27 109 -14z"/>
<path d="M30119 15673 c-33 -38 -58 -79 -127 -213 -32 -63 -78 -151 -102 -195
-24 -44 -50 -93 -57 -110 -8 -16 -20 -41 -28 -55 -8 -14 -26 -47 -39 -75 -14
-27 -30 -57 -35 -65 -5 -8 -26 -51 -47 -95 -20 -44 -45 -91 -55 -104 -11 -13
-19 -31 -19 -41 0 -10 -8 -28 -19 -41 -10 -13 -24 -42 -31 -64 -7 -22 -18 -47
-25 -55 -8 -8 -30 -51 -50 -95 -62 -137 -232 -485 -290 -595 -19 -36 -40 -81
-46 -100 -7 -19 -20 -46 -29 -60 -9 -14 -34 -63 -54 -110 -20 -47 -41 -92 -47
-100 -5 -8 -12 -22 -16 -30 -16 -39 -156 -320 -178 -360 -13 -25 -68 -135
-120 -244 -53 -110 -105 -210 -115 -224 -11 -14 -20 -33 -20 -43 0 -17 -159
-336 -181 -365 -12 -14 -134 -257 -142 -280 -4 -11 -25 -52 -47 -93 -22 -40
-40 -79 -40 -86 0 -6 -29 -70 -65 -141 -36 -71 -65 -134 -65 -140 0 -6 9 -19
21 -30 19 -17 40 -19 183 -21 265 -4 605 12 646 30 51 22 95 70 131 141 17 33
37 72 45 86 23 44 72 154 79 180 4 14 13 34 20 46 7 11 18 39 24 61 10 37 17
43 70 66 l60 26 803 1 c742 2 806 0 838 -16 55 -27 89 -64 104 -114 17 -55 73
-189 85 -204 5 -6 14 -27 19 -46 22 -74 74 -186 99 -212 43 -45 109 -50 545
-42 355 6 389 9 407 25 19 18 19 19 -10 73 -17 31 -34 58 -39 61 -5 3 -16 29
-26 58 -9 28 -20 57 -24 62 -4 6 -13 28 -20 50 -7 22 -23 58 -36 81 -13 22
-24 46 -24 53 0 7 -24 63 -54 124 -30 62 -68 142 -86 179 -17 37 -35 70 -40
73 -5 3 -14 22 -21 43 -7 20 -31 72 -55 114 -23 43 -46 88 -50 100 -6 22 -66
148 -84 178 -5 8 -16 31 -25 50 -8 19 -22 46 -30 60 -8 14 -27 54 -43 90 -41
93 -49 109 -82 165 -16 28 -47 88 -70 135 -23 47 -45 92 -50 100 -7 13 -46 86
-113 215 -9 17 -28 57 -42 90 -15 33 -37 83 -51 110 -13 28 -30 66 -39 85 -8
19 -19 42 -24 50 -6 8 -31 60 -57 115 -63 135 -126 270 -184 390 -26 55 -60
127 -75 160 -54 117 -127 271 -175 365 -26 52 -51 106 -55 120 -9 29 -64 146
-181 388 -46 95 -84 174 -84 177 0 12 -64 96 -80 105 -27 15 -34 13 -61 -17z
m48 -1640 c31 -34 62 -99 63 -133 0 -14 6 -35 13 -46 35 -62 85 -163 96 -195
6 -20 20 -53 31 -74 11 -22 20 -45 20 -53 0 -7 9 -30 19 -50 11 -21 23 -56 27
-77 4 -22 26 -78 49 -125 23 -47 46 -101 50 -120 4 -19 30 -82 58 -140 42 -86
52 -117 55 -171 4 -58 1 -69 -20 -94 l-25 -28 -486 -1 -486 -1 -30 29 c-42 40
-46 83 -17 186 13 47 33 103 45 125 11 22 21 46 21 53 0 8 11 35 24 61 14 25
35 69 46 96 12 28 35 77 51 110 15 33 31 74 35 90 4 17 28 75 54 130 71 148
90 192 90 207 0 7 9 27 19 44 10 17 24 55 30 85 23 106 109 154 168 92z"/>
<path d="M19502 15637 c-11 -12 -24 -31 -29 -42 -14 -30 -8 -2543 6 -2620 6
-33 15 -113 21 -179 5 -69 15 -127 23 -140 8 -12 17 -37 21 -56 4 -19 18 -64
31 -100 13 -36 31 -86 39 -112 9 -27 23 -69 32 -95 31 -92 136 -289 204 -381
84 -115 155 -189 240 -250 36 -25 85 -62 110 -82 25 -20 60 -42 79 -48 18 -7
54 -25 80 -40 80 -49 211 -97 441 -159 105 -28 105 -28 420 -28 l315 0 100 32
c55 17 159 50 230 72 140 44 367 160 461 236 121 98 248 226 276 279 6 11 30
46 52 76 44 60 66 96 91 150 9 19 27 58 40 85 14 28 25 58 25 68 0 10 11 35
25 55 14 20 25 47 25 60 0 12 11 49 25 82 14 33 25 68 25 78 0 11 12 41 27 68
l27 49 7 655 c4 360 8 1004 10 1430 4 814 3 838 -39 858 -24 12 -727 5 -750
-7 -45 -24 -44 -6 -44 -728 0 -378 -3 -983 -7 -1343 l-7 -655 -26 -55 c-32
-70 -64 -164 -73 -215 -11 -64 -53 -123 -162 -230 -125 -123 -190 -159 -311
-174 -46 -6 -87 -13 -92 -16 -5 -3 -70 -10 -145 -16 -150 -11 -245 -2 -425 42
-86 22 -281 202 -336 312 -54 107 -81 178 -110 292 l-28 110 -6 1312 -5 1312
-30 31 c-16 16 -45 34 -65 39 -19 5 -207 10 -416 10 -380 0 -382 0 -402 -22z"/>
<path d="M42315 15650 c-269 -5 -295 -9 -310 -50 -10 -24 -18 -4032 -8 -4074
5 -25 19 -47 37 -60 27 -21 35 -21 539 -20 620 1 921 9 1047 29 260 41 471 89
595 135 28 11 64 22 80 26 37 9 254 115 315 154 25 16 61 38 81 49 19 11 41
27 48 35 8 9 17 16 22 16 23 0 230 172 286 238 26 31 69 79 96 106 26 28 47
56 47 62 0 7 15 30 33 52 17 21 43 58 57 81 14 23 45 69 68 102 24 34 49 75
54 93 6 17 19 40 28 51 10 11 20 40 24 63 4 24 15 60 25 80 10 21 22 53 26 72
4 19 16 52 26 72 13 25 22 76 29 156 5 65 16 137 25 161 24 70 22 511 -4 629
-11 48 -22 112 -26 142 -4 30 -14 70 -21 89 -8 19 -21 61 -30 95 -9 34 -19 66
-24 71 -4 6 -13 27 -20 49 -7 21 -23 54 -36 74 -13 19 -24 40 -24 46 0 20
-169 296 -181 296 -4 0 -26 26 -50 57 -24 32 -73 88 -109 126 -36 38 -68 75
-73 82 -4 7 -24 24 -45 36 -20 13 -64 44 -97 69 -52 40 -145 98 -235 146 -14
8 -65 32 -115 55 -49 23 -126 59 -170 80 -43 22 -88 39 -100 39 -11 0 -40 9
-63 20 -24 11 -69 24 -100 29 -32 5 -74 17 -95 25 -20 9 -86 21 -145 27 -59 5
-129 16 -157 24 -27 7 -91 20 -140 29 -50 8 -107 22 -128 31 -31 13 -95 15
-429 13 -216 -1 -510 -5 -653 -8z m1245 -883 c25 -9 77 -21 116 -26 39 -6 91
-20 115 -31 24 -11 52 -20 63 -20 10 0 39 -11 65 -24 25 -14 75 -39 111 -57
36 -17 74 -39 85 -48 11 -10 34 -26 50 -36 54 -33 203 -175 215 -205 7 -17 16
-30 21 -30 25 0 172 -279 188 -358 6 -30 16 -63 23 -75 35 -67 27 -580 -12
-691 -11 -33 -20 -66 -20 -75 0 -25 -62 -148 -106 -212 -61 -88 -152 -197
-176 -210 -11 -6 -49 -37 -84 -68 -93 -83 -108 -93 -239 -148 -203 -87 -302
-110 -510 -123 -99 -6 -238 -12 -310 -13 -148 -2 -176 6 -209 62 -19 33 -20
49 -16 360 2 179 3 673 2 1096 l-2 770 26 83 c19 61 31 86 47 93 13 5 129 7
267 5 191 -2 255 -7 290 -19z"/>
</g>
</svg>
